<?xml version="1.0" encoding="utf-8"?>
<!-- Generator: Adobe Illustrator 19.2.1, SVG Export Plug-In . SVG Version: 6.00 Build 0)  -->
<!DOCTYPE svg PUBLIC "-//W3C//DTD SVG 1.1//EN" "http://www.w3.org/Graphics/SVG/1.1/DTD/svg11.dtd">
<svg version="1.1" id="background" xmlns="http://www.w3.org/2000/svg" xmlns:xlink="http://www.w3.org/1999/xlink" x="0px" y="0px"
	 width="800px" height="800px" viewBox="0 0 800 800" style="enable-background:new 0 0 800 800;" xml:space="preserve">
<style type="text/css">
	.st0{clip-path:url(#SVGID_2_);}
	.st1{fill:#E0E4CC;}
	.st2{fill:#1C1A1B;}
	.st3{fill:#706B6E;}
	.st4{fill:#EFB9A7;}
	.st5{fill:#E3945F;}
	.st6{fill:#5E2E27;}
	.st7{fill:none;stroke:#5E2E27;stroke-width:3;stroke-miterlimit:10;}
</style>
<title>dc-avatar</title>
<g>
	<defs>
		<circle id="SVGID_1_" cx="400" cy="400" r="400"/>
	</defs>
	<clipPath id="SVGID_2_">
		<use xlink:href="#SVGID_1_"  style="overflow:visible;"/>
	</clipPath>
	<g class="st0">
		<rect x="-0.5" y="-0.5" class="st1" width="800" height="800"/>
		<path class="st2" d="M638.2,651.5c51.9,5.3,153,3.7,162.1,70.3c2,14.7,8,67.2,0.1,77.1c-5.2,6.6-21.3,3.6-32.4,3.6H431.5l39.6-52
			c15.1-19.8,30.3-49.5,49.6-65.2C547.5,663.7,604.1,660.3,638.2,651.5z"/>
		<path class="st2" d="M152.6,650.2C100.7,652.4-8.6,640.3-8,736.7c0.1,19.3,2.6,96.4,11.9,107.6c4.6,5.5,29.4-1.9,35.8-2.6
			l347.1-38.8c-16.3-22.3-32.6-43.7-48.9-65.5c-17.8-23.8-39.4-65.7-61.3-82.1c-13.9-10.4-32.9-5.4-49.2-5.4
			C202.5,650.1,177.5,650.1,152.6,650.2z"/>
		<path class="st3" d="M494.5,796.5c24-19.3,51.3-38,81-47c22.5-6.8,37.7-5.3,59.3,0.5c15.7,4.2,7.5,14.9,16.5-3
			c11.1-22.2,1.9-59.8-7.2-81.1c-16.6-38.8-45.4-58.2-81.7-77.8C535.7,657.4,514.1,724.7,494.5,796.5z"/>
		<path class="st3" d="M334.2,794.1c-30.2-12.6-64.1-23.6-97.1-22.4c-21.9,0.8-34.3,6.8-51.6,17.9c-12,7.7-1.9,13.6-14.3,3.3
			c-17.2-14.2-19.6-58.2-17.6-78.3c4.5-43.8,26.6-71.5,57.3-101.8C255.9,672,295.4,730.6,334.2,794.1z"/>
		<polyline class="st4" points="545.3,631.8 497.9,798.8 436.5,799.5 390.5,799.5 321.5,799.5 237.8,652.5 545.3,631.8 		"/>
		<path class="st4" d="M456.6,167.4c48.2,35.5,65,69.2,78.2,126.8c8.7,37.9,18.7,76.8,22.5,115.4c4.9,49.5,5.2,99.9,7.9,149.5
			c0.9,15.9,3.4,31.2-3.4,45.9c-11.8,25.5-39.8,50.3-59.3,69.3c-46.9,45.9-100.7,86.9-166,54.5c-54.5-27-110.6-76.4-147.3-125
			c-26.7-35.3-18.9-92-18.8-134.5c0.1-47.4,5.1-86.8,18.2-132.8c9.3-32.5,19.6-64.9,29.5-97.2c6.3-20.4,11.2-47.4,26.7-63.2
			c26.5-27,81-13.4,114.1-9.9C391.7,169.9,423.6,169,456.6,167.4z"/>
		
			<ellipse transform="matrix(9.167545e-02 -0.9958 0.9958 9.167545e-02 52.4913 1000.6762)" class="st4" cx="574.8" cy="471.6" rx="79.1" ry="24.1"/>
		
			<ellipse transform="matrix(0.9701 -0.2426 0.2426 0.9701 -108.6872 53.0295)" class="st4" cx="161" cy="467.8" rx="20" ry="61.2"/>
		<path class="st4" d="M441.4,172.9l35.5-42.7l0,0l12.2,10.1l0,0l-35.6,42.8c-2.8,3.3-7.7,3.8-11,1l0,0
			C439,181.4,438.5,176.3,441.4,172.9z"/>
		<path class="st5" d="M456.2,166.5c-16.4,13.1-48.5,7-67.6,5.1c-33-3.1-66.9-7.3-100.2-5.9c-47.6,2-61.1,63.6-74.6,103.1
			c-14.9,43.4-32,91.7-40,136.9c-3.9,22.1,13.4,105.4-14.7,107.9c2.2-26.4,5.7-53,6.6-79.5c0.8-23.6-7-35.3-16.7-57.8
			c-33.5-77.7-46.3-159.4,2.4-234.4c18.4-28.3,59.5-54.3,89-70.3c18.9-10.3,42.2-17,63.2-21.1c19.6-3.8,33.9,3.9,51.8,3.1
			c41-1.8,67.6-13.1,101.1,22.4C485.6,106.8,490,139.5,456.2,166.5z"/>
		<path class="st5" d="M456.5,170.5c6.5-7.9,20.4-31.8,29.8-33.4c22.4-3.8,52.7,32.4,62.5,48.5c29,47.7,3.9,86.1,12.1,135.8
			c6.1,37.1,9.8,69.9,9.6,107.3c-0.1,14.7,0.8,29.4,0.6,44.1c-0.2,21.5,0,25.9-18.7,37.7c0.9-30.1,4.4-67.2,2.7-97.2
			c-1.6-26.8-15.7-44.9-23.8-69.9c-7.4-23-6.7-48.4-8.9-72.3C518.3,224.1,493.6,198.1,456.5,170.5z"/>
		<path class="st5" d="M174.5,487.5c16.7,30.9,32.1,77.8,59.4,100.7c4.2,3.5,25.7,23.1,30.6,21.4s3.3-9.2,3.5-14.6
			c0.5-14.9-4.5-38.5,7.9-46.2c18.8-11.6,55.3-13.6,76.8-17.6c26.2-4.9,51.7-2.2,78,1.3c18.4,2.4,36.7-1.2,41.4,17.1
			c2.6,10,1.2,21.8,4.8,31.5c4,10.7-0.7,8.9,11.6,5.7c26.4-6.9,38.6-23.3,49.2-46.5c10.1-22.1,12.1-33,31.8-46.8
			c-0.3,16.2-0.8,32.3-1.3,48.5c-0.7,20.1,2.1,46.5-4.3,65.7c-4.1,12.4-16.5,22.2-25.3,31.7c-18.5,19.8-37.4,39.3-56.9,58.2
			c-12.9,12.6-25.6,27-42.7,33.5c-23.6,9-55.6,13.8-80.8,12.3c-23.6-1.4-44.9-23.5-63-37c-31.1-23.3-58.4-49-86.4-75.8
			c-11.2-10.7-24.6-19.9-32.8-33.4c-8.3-13.7-6.9-30.3-9.4-45.7c-1.6-9.9-9.1-26.8-7.2-36.6C160.7,507.9,170.4,493.4,174.5,487.5z"
			/>
		<path class="st6" d="M182.3,384.7c43.2-8.4,85.4-12.8,129.2-5.9c26.9,4.2,50.6,5.5,76.2-3.2c31.5-10.6,70.9-12.6,104-11.8
			c14.5,0.4,29.4-0.5,42.4,5.9c12.8,6.2,30.8,15.9,43,23.5c-8.8,10.7-13.1,11.4-22.3,7.7c-7.7-3-15.9-13.6-22.3-19.1
			c-7.9,10.2-2,23.4-19,20.7c0-12.8,2.2-21.9-11.1-26.8c-14.4-5.3-39.5-2.9-54.7-1.9c-30.1,2-70.4,0.4-67.9,39.3
			c-6.6-11.2-17.3-25.3-30.6-13.5c-6.2,5.5-6.3,27.6-17.3,20.8c7.1-20.1,5.9-28-15.3-34.3c-22.1-6.5-47.2-4.1-69.8-2.7
			c-17.3,1.1-39.7,0.2-45.2,21c-1.6,6.1,4,17.9-7.3,14.5c-5.3-1.6-6.3-10-8.4-15.8c-6.2,3.3-22.4,32.4-23.7,15.7
			C161.6,412.8,176.2,389.3,182.3,384.7z"/>
		<path class="st7" d="M199.5,418.5c0,0,9,37.3,14.3,43.3s45.3,10.7,59.3,10s42.7-5.3,48.7-10.7s14-39.7,14-39.7"/>
		<path class="st7" d="M377.8,406.2c0,0,15.2,45.3,25.7,52.8s49,5.5,59.8,3.8s41.2-4,47.5-15.5s7-45.8,7-45.8"/>
	</g>
</g>
</svg>
