<?xml version="1.0" encoding="utf-8"?>
<!-- Generator: Adobe Illustrator 18.1.1, SVG Export Plug-In . SVG Version: 6.00 Build 0)  -->
<!DOCTYPE svg PUBLIC "-//W3C//DTD SVG 1.1//EN" "http://www.w3.org/Graphics/SVG/1.1/DTD/svg11.dtd">
<svg version="1.1" id="Layer_1" xmlns="http://www.w3.org/2000/svg" xmlns:xlink="http://www.w3.org/1999/xlink" x="0px" y="0px"
	 width="70px" height="70px" viewBox="0 0 70 70" enable-background="new 0 0 70 70" xml:space="preserve">
<g>
	<g>
		<g>
			<path fill="#444444" d="M35.5,70c-0.7,0-1.3-0.1-1.8-0.2L4.2,62.3c-1.3-0.3-2.3-1.7-2.3-3V10.7c0-1.3,1-2.7,2.3-3l29.2-7.5
				c1-0.3,2.7-0.3,3.7,0l28.7,7.5c1.3,0.3,2.3,1.7,2.3,3v48.5c0,1.3-1,2.7-2.3,3l-28.4,7.5C36.9,69.9,36.3,70,35.5,70z M35.3,1.9
				c-0.5,0-1,0.1-1.4,0.1L4.6,9.5c-0.5,0.1-0.9,0.7-0.9,1.2v48.5c0,0.5,0.4,1.1,0.9,1.2L34.2,68c0.7,0.2,2.1,0.2,2.8,0l28.4-7.5
				c0.5-0.1,0.9-0.7,0.9-1.2V10.7c0-0.5-0.4-1.1-0.9-1.2L36.7,2C36.3,1.9,35.8,1.9,35.3,1.9z"/>
		</g>
	</g>
	<g>
		<path fill="#444444" d="M32.6,46.7c-1.8,0.9-4.1,1.3-6.8,1.3H22V22h3.8c4.2,0,7.4,0.9,9.4,3.1c2.1,2.2,3.1,5.4,3.1,9.9
			c0,3.3-0.6,5.9-1.7,8c0.3,0.5,0.6,0.9,0.9,1.3c0.5,0.6,1,1,1.6,1.4c1-1.1,1.8-2.3,2.4-3.6c1-2.1,1.4-4.5,1.4-7.3
			c0-4.9-1.5-8.4-4.4-11.1c-3-2.7-7.1-3.8-12.5-3.8H15v1.4l2.4,0.3l0.6,0.7v25.3l-0.6,0.7L15,48.5V50h11c2.8,0,5,0,6.7-0.5
			c0.8-0.2,1.6-0.5,2.3-0.8C34.1,48.1,33.3,47.5,32.6,46.7z"/>
		<g>
			<path fill="#444444" d="M50.4,47.6l-0.7,0.5c-0.7,0.2-1.3,0.2-2,0.3c-0.7,0.1-1.3,0.1-2,0.1c-3.8,0-6.7-1.3-8.8-3.7
				c-2.1-2.5-3.2-5.9-3.2-10.2c0-3,0.6-5.6,1.7-7.7c-0.1-0.2-0.2-0.4-0.4-0.5c-0.2-0.3-0.5-0.6-0.6-0.8c-0.5-0.5-1.1-1-1.8-1.4
				C30.2,27,29,30.5,29,34.9c0,3,0.7,5.7,2.1,8.3c1.4,2.5,3.4,4.5,5.8,5.9c1.1,0.6,2.3,1.1,3.6,1.4c1.3,0.3,2.7,0.5,4.2,0.5
				c1.5,0,3.1-0.1,4.6-0.4c1.6-0.3,3.6-0.7,4.6-1.2V43h-2.4L50.4,47.6z"/>
			<path fill="#444444" d="M49.3,19.3c-1.5-0.3-3-0.4-4.3-0.4c-3.3,0-6.2,0.7-8.6,2.1c1,0.5,1.9,1.2,2.7,1.9c0,0,0,0,0,0
				c1.7-1.1,3.7-1.6,6-1.6c0.9,0,1.7,0.1,2.6,0.3c0.8,0.2,1.7,0.5,2.6,0.9l0.6,0.5l0.7,3.9H54v-6.5C52,20,50.8,19.6,49.3,19.3z"/>
		</g>
	</g>
</g>
</svg>
